<?xml version="1.0" encoding="UTF-8" standalone="no"?>
<!DOCTYPE svg PUBLIC "-//W3C//DTD SVG 1.1//EN"
 "http://www.w3.org/Graphics/SVG/1.1/DTD/svg11.dtd">
<!-- Generated by graphviz version 2.40.1 (20161225.0304)
 -->
<!-- Title: finite_state_transducer Pages: 1 -->
<svg width="340pt" height="52pt"
 viewBox="0.00 0.00 340.00 52.00" xmlns="http://www.w3.org/2000/svg" xmlns:xlink="http://www.w3.org/1999/xlink">
<g id="graph0" class="graph" transform="scale(1 1) rotate(0) translate(4 48)">
<title>finite_state_transducer</title>
<polygon fill="#ffffff" stroke="transparent" points="-4,4 -4,-48 336,-48 336,4 -4,4"/>
<!-- 4 -->
<g id="node1" class="node">
<title>4</title>
<ellipse fill="none" stroke="#104e8b" cx="310" cy="-22" rx="18" ry="18"/>
<ellipse fill="none" stroke="#104e8b" cx="310" cy="-22" rx="22" ry="22"/>
<text text-anchor="middle" x="310" y="-17.8" font-family="Times,serif" font-size="14.00" fill="#000000">4</text>
</g>
<!-- 0 -->
<g id="node2" class="node">
<title>0</title>
<ellipse fill="none" stroke="#104e8b" cx="18" cy="-22" rx="18" ry="18"/>
<text text-anchor="middle" x="18" y="-17.8" font-family="Times,serif" font-size="14.00" fill="#000000">0</text>
</g>
<!-- 1 -->
<g id="node3" class="node">
<title>1</title>
<ellipse fill="none" stroke="#104e8b" cx="90" cy="-22" rx="18" ry="18"/>
<text text-anchor="middle" x="90" y="-17.8" font-family="Times,serif" font-size="14.00" fill="#000000">1</text>
</g>
<!-- 0&#45;&gt;1 -->
<g id="edge1" class="edge">
<title>0&#45;&gt;1</title>
<path fill="none" stroke="#000000" d="M36.1686,-22C43.869,-22 53.0257,-22 61.5834,-22"/>
<polygon fill="#000000" stroke="#000000" points="61.5868,-25.5001 71.5867,-22 61.5867,-18.5001 61.5868,-25.5001"/>
<text text-anchor="start" x="37.4246" y="-28.8" font-family="Times,serif" font-size="14.00" fill="#104e8b">Anna</text>
<text text-anchor="start" x="40.0065" y="-6.8" font-family="Times,serif" font-size="14.00" fill="#ff8c00">Anne</text>
</g>
<!-- 2 -->
<g id="node4" class="node">
<title>2</title>
<ellipse fill="none" stroke="#104e8b" cx="162" cy="-22" rx="18" ry="18"/>
<text text-anchor="middle" x="162" y="-17.8" font-family="Times,serif" font-size="14.00" fill="#000000">2</text>
</g>
<!-- 1&#45;&gt;2 -->
<g id="edge2" class="edge">
<title>1&#45;&gt;2</title>
<path fill="none" stroke="#000000" d="M108.1686,-22C115.869,-22 125.0257,-22 133.5834,-22"/>
<polygon fill="#000000" stroke="#000000" points="133.5868,-25.5001 143.5867,-22 133.5867,-18.5001 133.5868,-25.5001"/>
<text text-anchor="start" x="118.7039" y="-28.8" font-family="Times,serif" font-size="14.00" fill="#104e8b">eats</text>
<text text-anchor="start" x="112.5099" y="-6.8" font-family="Times,serif" font-size="14.00" fill="#ff8c00">mange</text>
</g>
<!-- 3 -->
<g id="node5" class="node">
<title>3</title>
<ellipse fill="none" stroke="#104e8b" cx="234" cy="-22" rx="18" ry="18"/>
<text text-anchor="middle" x="234" y="-17.8" font-family="Times,serif" font-size="14.00" fill="#000000">3</text>
</g>
<!-- 2&#45;&gt;3 -->
<g id="edge3" class="edge">
<title>2&#45;&gt;3</title>
<path fill="none" stroke="#000000" d="M180.1686,-22C187.869,-22 197.0257,-22 205.5834,-22"/>
<polygon fill="#000000" stroke="#000000" points="205.5868,-25.5001 215.5867,-22 205.5867,-18.5001 205.5868,-25.5001"/>
<text text-anchor="start" x="205.4798" y="-28.8" font-family="Times,serif" font-size="14.00" fill="#104e8b">a</text>
<text text-anchor="start" x="184.0617" y="-6.8" font-family="Times,serif" font-size="14.00" fill="#ff8c00">une</text>
</g>
<!-- 3&#45;&gt;4 -->
<g id="edge4" class="edge">
<title>3&#45;&gt;4</title>
<path fill="none" stroke="#000000" d="M252.0109,-22C259.709,-22 268.9371,-22 277.7439,-22"/>
<polygon fill="#000000" stroke="#000000" points="277.7718,-25.5001 287.7718,-22 277.7718,-18.5001 277.7718,-25.5001"/>
<text text-anchor="start" x="244.951" y="-6.8" font-family="Times,serif" font-size="14.00" fill="#ff8c00">banane</text>
<text text-anchor="start" x="256.1901" y="-23.3" font-family="Times,serif" font-size="14.00" fill="#104e8b">banana</text>
</g>
</g>
</svg>
