<?xml version="1.0" encoding="UTF-8" standalone="no"?>
<!DOCTYPE svg PUBLIC "-//W3C//DTD SVG 1.1//EN"
 "http://www.w3.org/Graphics/SVG/1.1/DTD/svg11.dtd">
<!-- Generated by graphviz version 2.40.1 (20161225.0304)
 -->
<!-- Title: finite_state_transducer Pages: 1 -->
<svg width="438pt" height="52pt"
 viewBox="0.00 0.00 437.95 52.00" xmlns="http://www.w3.org/2000/svg" xmlns:xlink="http://www.w3.org/1999/xlink">
<g id="graph0" class="graph" transform="scale(1 1) rotate(0) translate(4 48)">
<title>finite_state_transducer</title>
<polygon fill="#ffffff" stroke="transparent" points="-4,4 -4,-48 433.9453,-48 433.9453,4 -4,4"/>
<!-- 4 -->
<g id="node1" class="node">
<title>4</title>
<ellipse fill="none" stroke="#0000ff" cx="407.9453" cy="-22" rx="18" ry="18"/>
<ellipse fill="none" stroke="#0000ff" cx="407.9453" cy="-22" rx="22" ry="22"/>
<text text-anchor="middle" x="407.9453" y="-17.8" font-family="Times,serif" font-size="14.00" fill="#000000">4</text>
</g>
<!-- 0 -->
<g id="node2" class="node">
<title>0</title>
<ellipse fill="none" stroke="#0000ff" cx="18" cy="-22" rx="18" ry="18"/>
<text text-anchor="middle" x="18" y="-17.8" font-family="Times,serif" font-size="14.00" fill="#000000">0</text>
</g>
<!-- 1 -->
<g id="node3" class="node">
<title>1</title>
<ellipse fill="none" stroke="#0000ff" cx="120.3242" cy="-22" rx="18" ry="18"/>
<text text-anchor="middle" x="120.3242" y="-17.8" font-family="Times,serif" font-size="14.00" fill="#000000">1</text>
</g>
<!-- 0&#45;&gt;1 -->
<g id="edge1" class="edge">
<title>0&#45;&gt;1</title>
<path fill="none" stroke="#000000" d="M36.2935,-22C51.7901,-22 74.2634,-22 92.0707,-22"/>
<polygon fill="#000000" stroke="#000000" points="92.1891,-25.5001 102.1891,-22 92.189,-18.5001 92.1891,-25.5001"/>
<text text-anchor="middle" x="69.1621" y="-24.8" font-family="Times,serif" font-size="14.00" fill="#000000">Anne</text>
</g>
<!-- 2 -->
<g id="node4" class="node">
<title>2</title>
<ellipse fill="none" stroke="#0000ff" cx="214.0898" cy="-22" rx="18" ry="18"/>
<text text-anchor="middle" x="214.0898" y="-17.8" font-family="Times,serif" font-size="14.00" fill="#000000">2</text>
</g>
<!-- 1&#45;&gt;2 -->
<g id="edge2" class="edge">
<title>1&#45;&gt;2</title>
<path fill="none" stroke="#000000" d="M138.4032,-22C151.8937,-22 170.5794,-22 186.0087,-22"/>
<polygon fill="#000000" stroke="#000000" points="186.0664,-25.5001 196.0664,-22 186.0664,-18.5001 186.0664,-25.5001"/>
<text text-anchor="middle" x="167.207" y="-24.8" font-family="Times,serif" font-size="14.00" fill="#000000">eats</text>
</g>
<!-- 3 -->
<g id="node5" class="node">
<title>3</title>
<ellipse fill="none" stroke="#0000ff" cx="292.3037" cy="-22" rx="18" ry="18"/>
<text text-anchor="middle" x="292.3037" y="-17.8" font-family="Times,serif" font-size="14.00" fill="#000000">3</text>
</g>
<!-- 2&#45;&gt;3 -->
<g id="edge3" class="edge">
<title>2&#45;&gt;3</title>
<path fill="none" stroke="#000000" d="M232.2303,-22C241.707,-22 253.5159,-22 264.1496,-22"/>
<polygon fill="#000000" stroke="#000000" points="264.2617,-25.5001 274.2617,-22 264.2616,-18.5001 264.2617,-25.5001"/>
<text text-anchor="middle" x="253.1968" y="-24.8" font-family="Times,serif" font-size="14.00" fill="#000000">a</text>
</g>
<!-- 3&#45;&gt;4 -->
<g id="edge4" class="edge">
<title>3&#45;&gt;4</title>
<path fill="none" stroke="#000000" d="M310.3727,-22C327.7624,-22 354.4497,-22 375.5212,-22"/>
<polygon fill="#000000" stroke="#000000" points="375.6485,-25.5001 385.6484,-22 375.6484,-18.5001 375.6485,-25.5001"/>
<text text-anchor="middle" x="348.1245" y="-24.8" font-family="Times,serif" font-size="14.00" fill="#000000">banana</text>
</g>
</g>
</svg>
